#!OML:ASF F:\VICON\USERDATA\INSTALL\rory3\rory3.ASF
:FULLY-SPECIFIED
:DEGREES
494
root 1.21887 18.2621 0.712127 -180.564 -23.8558 -184.098
lowerback 13.6625 2.14242 -1.54598
upperback 0.49995 2.4595 -0.638195
thorax -7.17693 1.19665 -0.280798
lowerneck -22.0683 -4.04271 -12.4963
upperneck 30.4402 -5.06684 8.34979
head 14.7988 -2.83674 4.54969
rclavicle 5.37961e-014 -1.63003e-014
rhumerus -33.8986 -8.89238 -83.1119
rradius 27.4466
rwrist 7.47999
rhand -15.0402 8.30077
rfingers 7.12502
rthumb 11.1259 -21.3843
lclavicle 5.37961e-014 -1.63003e-014
lhumerus -33.5028 3.47388 85.7549
lradius 34.6287
lwrist -6.43259
lhand -18.0626 24.9697
lfingers 7.12502
lthumb 8.20994 54.7902
rfemur -4.97223 -8.86756 20.5501
rtibia 23.0581
rfoot -11.3572 -18.9188
rtoes 14.7396
lfemur 0.555299 2.54214 -18.6411
ltibia 12.4353
lfoot -7.92829 12.4368
ltoes -6.48936
495
root 1.2287 18.2644 0.712468 -180.501 -24.5597 -184.247
lowerback 13.5961 2.20988 -1.65188
upperback 0.597081 2.5309 -0.642187
thorax -7.04119 1.23284 -0.234235
lowerneck -22.1675 -4.09311 -12.4451
upperneck 30.452 -5.08978 8.23037
head 14.8246 -2.8489 4.48682
rclavicle -3.926e-014 -2.78299e-015
rhumerus -33.867 -8.89416 -82.985
rradius 27.5658
rwrist 7.35293
rhand -15.2789 8.56697
rfingers 7.12502
rthumb 10.8957 -21.1303
lclavicle -3.926e-014 -2.78299e-015
lhumerus -33.4085 3.42889 85.7521
lradius 34.6699
lwrist -6.5169
lhand -18.2268 25.16
lfingers 7.12502
lthumb 8.05147 54.9866
rfemur -4.88552 -9.11842 20.4481
rtibia 22.9936
rfoot -11.4408 -19.4067
rtoes 15.2604
lfemur 0.823069 2.44569 -18.5018
ltibia 12.2375
lfoot -7.77601 12.4702
ltoes -5.60986
496
root 1.23217 18.2641 0.711015 -180.429 -25.2255 -184.353
lowerback 13.5571 2.27013 -1.64564
upperback 0.591756 2.60987 -0.690379
thorax -7.02339 1.27068 -0.302802
lowerneck -22.1706 -4.12729 -12.2891
upperneck 30.5575 -5.12649 7.9945
head 14.8656 -2.88081 4.35529
rclavicle -3.40419e-014 1.15295e-014
rhumerus -33.9425 -8.79182 -82.9695
rradius 27.6275
rwrist 6.98378
rhand -15.4472 8.67165
rfingers 7.12502
rthumb 10.7334 -21.0341
lclavicle -3.40419e-014 1.15295e-014
lhumerus -33.5494 3.37244 85.6623
lradius 34.7739
lwrist -6.51208
lhand -18.4872 25.1696
lfingers 7.12502
lthumb 7.80009 55.0058
rfemur -4.81692 -9.46984 20.3552
rtibia 22.9504
rfoot -11.5638 -19.6749
rtoes 15.5816
lfemur 1.12183 2.33533 -18.3462
ltibia 11.9813
lfoot -7.65596 12.5169
ltoes -3.99728
497
root 1.23489 18.2677 0.709047 -180.366 -25.802 -184.325
lowerback 13.4772 2.32783 -1.58283
upperback 0.555581 2.70403 -0.660332
thorax -7.0167 1.31704 -0.322651
lowerneck -22.1459 -4.15565 -12.3544
upperneck 30.6039 -5.12401 7.93309
head 14.8818 -2.89645 4.34281
rclavicle -3.48122e-014 1.27222e-014
rhumerus -33.9301 -8.76901 -82.7994
rradius 27.521
rwrist 7.22067
rhand -15.3795 8.8915
rfingers 7.12502
rthumb 10.7988 -20.8109
lclavicle -3.48122e-014 1.27222e-014
lhumerus -33.694 3.51459 85.5624
lradius 34.8085
lwrist -6.61046
lhand -18.3366 24.7829
lfingers 7.12502
lthumb 7.94543 54.6136
rfemur -4.83116 -9.69702 20.414
rtibia 22.9302
rfoot -11.5254 -19.99
rtoes 15.4074
lfemur 1.38052 2.28732 -18.0765
ltibia 11.7058
lfoot -7.54862 12.6833
ltoes -2.55096
498
root 1.237 18.2713 0.712033 -180.207 -26.4343 -184.432
lowerback 13.3786 2.36969 -1.5946
upperback 0.52595 2.7604 -0.69014
thorax -6.99273 1.34584 -0.355318
lowerneck -22.1185 -4.18313 -12.3869
upperneck 30.6149 -5.16115 7.95958
head 14.8882 -2.91149 4.35345
rclavicle -2.45499e-014 -1.19271e-015
rhumerus -33.9277 -8.79779 -82.6054
rradius 27.4757
rwrist 7.74141
rhand -15.5584 9.42131
rfingers 7.12502
rthumb 10.6262 -20.29
lclavicle -2.45499e-014 -1.19271e-015
lhumerus -33.7541 3.63471 85.4325
lradius 34.7782
lwrist -6.59305
lhand -18.2525 24.4753
lfingers 7.12502
lthumb 8.02666 54.3029
rfemur -4.88037 -9.97788 20.3295
rtibia 22.8821
rfoot -11.4289 -20.3049
rtoes 15.3144
lfemur 1.52288 2.23935 -17.9652
ltibia 11.5363
lfoot -7.23061 12.9
ltoes -2.15534
499
root 1.24018 18.2695 0.716353 -180.142 -27.0551 -184.426
lowerback 13.3314 2.43224 -1.4777
upperback 0.513919 2.85907 -0.749853
thorax -6.97099 1.3898 -0.501446
lowerneck -22.1524 -4.20987 -12.2004
upperneck 30.7261 -5.26357 7.90734
head 14.9518 -2.94296 4.28247
rclavicle -2.0773e-014 0
rhumerus -33.9568 -8.86003 -82.557
rradius 27.5303
rwrist 7.77093
rhand -15.86 9.57702
rfingers 7.12502
rthumb 10.3352 -20.149
lclavicle -2.0773e-014 0
lhumerus -33.828 3.6412 85.2028
lradius 34.8245
lwrist -6.66782
lhand -18.1786 24.111
lfingers 7.12502
lthumb 8.09799 53.9358
rfemur -4.8963 -10.2392 20.3563
rtibia 22.8401
rfoot -11.3775 -20.6215
rtoes 15.2212
lfemur 1.6994 2.32592 -17.7253
ltibia 11.4267
lfoot -6.89947 13.0199
ltoes -1.96147
500
root 1.24433 18.2678 0.716225 -180.15 -27.6214 -184.308
lowerback 13.2841 2.4968 -1.33354
upperback 0.504421 2.9713 -0.731858
thorax -6.94871 1.44131 -0.583194
lowerneck -22.2199 -4.23281 -12.1404
upperneck 30.8189 -5.31705 7.90582
head 15.0145 -2.95906 4.26439
rclavicle 5.41688e-015 1.59028e-014
rhumerus -33.9628 -8.92155 -82.4653
rradius 27.662
rwrist 7.78635
rhand -15.3265 8.77628
rfingers 7.12502
rthumb 10.8498 -20.9235
lclavicle 5.41688e-015 1.59028e-014
lhumerus -33.9933 3.507 85.0782
lradius 35.013
lwrist -6.49418
lhand -18.1122 24.1123
lfingers 7.12502
lthumb 8.16206 53.9347
rfemur -4.90004 -10.3431 20.5103
rtibia 22.8294
rfoot -11.3775 -21.0124
rtoes 15.3618
lfemur 1.87577 2.72623 -17.3734
ltibia 11.3186
lfoot -6.45915 13.0043
ltoes -3.95845
501
root 1.24773 18.2675 0.71867 -180.065 -28.2273 -184.361
lowerback 13.2767 2.52327 -1.3784
upperback 0.465135 3.00463 -0.700482
thorax -6.99075 1.46078 -0.532323
lowerneck -22.2488 -4.20277 -12.21
upperneck 30.8435 -5.2548 7.96387
head 15.0283 -2.9309 4.31544
rclavicle -5.14355e-014 -7.95139e-016
rhumerus -33.9675 -8.95359 -82.294
rradius 27.7445
rwrist 7.79252
rhand -14.7831 8.23094
rfingers 7.12502
rthumb 11.374 -21.4406
lclavicle -5.14355e-014 -7.95139e-016
lhumerus -34.1819 3.42813 85.0139
lradius 35.1078
lwrist -6.1845
lhand -18.0196 24.1393
lfingers 7.12502
lthumb 8.25137 53.9581
rfemur -4.88042 -10.4805 20.4955
rtibia 22.7654
rfoot -11.4141 -21.4295
rtoes 15.6904
lfemur 1.91473 3.14145 -17.2401
ltibia 11.3727
lfoot -5.96342 13.1885
ltoes -6.64609
502
root 1.25213 18.2701 0.724328 -179.946 -28.8544 -184.493
lowerback 13.3074 2.57587 -1.45889
upperback 0.423329 3.06018 -0.733443
thorax -7.05541 1.49044 -0.535496
lowerneck -22.2401 -4.15901 -12.0914
upperneck 30.8576 -5.20431 7.88962
head 15.0189 -2.90364 4.27407
rclavicle 4.17448e-015 1.98785e-015
rhumerus -33.9733 -9.02848 -82.1505
rradius 28.1647
rwrist 6.54309
rhand -13.4492 7.48808
rfingers 7.12502
rthumb 12.6602 -22.1082
lclavicle 4.17448e-015 1.98785e-015
lhumerus -34.3274 3.50186 84.8362
lradius 35.1319
lwrist -6.1436
lhand -17.7503 24.4976
lfingers 7.12502
lthumb 8.51135 54.306
rfemur -4.86747 -10.6089 20.4057
rtibia 22.697
rfoot -11.474 -21.8553
rtoes 16.6914
lfemur 1.94048 3.4776 -17.1863
ltibia 11.4891
lfoot -5.66964 13.4298
ltoes -6.82404
503
root 1.25549 18.2752 0.72966 -180.014 -29.4878 -184.288
lowerback 13.3599 2.59723 -1.21309
upperback 0.383218 3.13157 -0.686753
thorax -7.11721 1.51915 -0.641834
lowerneck -22.2038 -4.12577 -11.89
upperneck 30.8743 -5.15738 7.67564
head 14.9977 -2.88791 4.15748
rclavicle -8.68689e-014 1.82882e-014
rhumerus -33.9768 -8.9502 -82.0468
rradius 28.1473
rwrist 6.3874
rhand -13.5539 7.85594
rfingers 7.12502
rthumb 12.5592 -21.7466
lclavicle -8.68689e-014 1.82882e-014
lhumerus -34.4481 3.77144 84.5898
lradius 35.1278
lwrist -6.33239
lhand -17.4995 24.6782
lfingers 7.12502
lthumb 8.75337 54.4766
rfemur -4.86716 -10.8028 20.6325
rtibia 22.6795
rfoot -11.5071 -22.2531
rtoes 17.2893
lfemur 2.02615 3.88685 -16.798
ltibia 11.5592
lfoot -5.40087 13.6393
ltoes -6.5412
